<?xml version="1.0" encoding="UTF-8" standalone="no"?>
<svg width="500" height ="350" version="1.1"
xmlns:svg ="http://www.w3.org/2000/svg"
xmlns:rdf="http://www.w3.org/1999/02/22-rdf-syntax-ns#"
xmlns:cc="http://web.resource.org/cc/"
xmlns:dc="http://purl.org/dc/elements/1.1/"
xmlns ="http://www.w3.org/2000/svg"
>
<!-- SVG plot written using Boost.Plot program (Creator Jacob Voytko) --> 
<!-- Use, modification and distribution of Boost.Plot subject to the --> 
<!-- Boost Software License, Version 1.0.--> 
<!-- (See accompanying file LICENSE_1_0.txt --> 
<!-- or copy at http://www.boost.org/LICENSE_1_0.txt) --> 

<!-- File demo_boxplot_full.svg --> 
<clipPath id="plot_window"><rect x="65.2" y="52" width="423" height="229"/></clipPath>
<g id="imageBackground" stroke="rgb(0,0,139)" fill="rgb(240,255,255)" stroke-width="2"><rect x="0" y="0" width="500" height="350"/></g>
<g id="plotBackground" stroke="rgb(255,255,0)" fill="rgb(255,255,255)" stroke-width="1"><rect x="70.2" y="57" width="418" height="224"/></g>
<g id="X-axis" stroke="rgb(0,0,0)" stroke-width="1"><line x1="70.2" y1="281" x2="488" y2="281"/></g>
<g id="Y-axis" stroke="rgb(0,0,0)" stroke-width="1"><line x1="70.2" y1="281" x2="70.2" y2="57"/></g>
<g id="xMajorTicks" stroke="rgb(0,0,0)" stroke-width="1"><path d="M175,281 L175,286 M279,281 L279,286 M384,281 L384,286 " fill="none"/></g>
<g id="yMajorTicks" stroke="rgb(0,0,0)" stroke-width="2"><path d="M65.2,281 L70.2,281 M65.2,236 L70.2,236 M65.2,192 L70.2,192 M65.2,147 L70.2,147 M65.2,102 L70.2,102 M65.2,57 L70.2,57 M65.2,281 L70.2,281 " fill="none"/></g>
<g id="yMinorTicks" stroke="rgb(0,0,0)" stroke-width="1"><path d="M68.2,272 L70.2,272 M68.2,263 L70.2,263 M68.2,254 L70.2,254 M68.2,245 L70.2,245 M68.2,227 L70.2,227 M68.2,218 L70.2,218 M68.2,209 L70.2,209 M68.2,200 L70.2,200 M68.2,183 L70.2,183 M68.2,174 L70.2,174 M68.2,165 L70.2,165 M68.2,156 L70.2,156 M68.2,138 L70.2,138 M68.2,129 L70.2,129 M68.2,120 L70.2,120 M68.2,111 L70.2,111 M68.2,92.9 L70.2,92.9 M68.2,83.9 L70.2,83.9 M68.2,74.9 L70.2,74.9 M68.2,66 L70.2,66 M68.2,281 L70.2,281 " fill="none"/></g>
<g id="YGrid" stroke="rgb(200,220,255)" stroke-width="1"></g>
<g id="yMinorGrid" stroke="rgb(200,220,255)" stroke-width="0.5"></g>
<g id="valueLabels" fill="rgb(0,0,0)">
<text x="175" y="306" text-anchor="middle" font-size="14" font-family="Verdana">data1</text>
<text x="279" y="306" text-anchor="middle" font-size="14" font-family="Verdana">[50/x]</text>
<text x="384" y="306" text-anchor="middle" font-size="14" font-family="Verdana">[sin(x*50)]</text>
<text x="59.2" y="284" text-anchor="end" font-size="12" font-family="Verdana">0</text>
<text x="59.2" y="239" text-anchor="end" font-size="12" font-family="Verdana">20</text>
<text x="59.2" y="194" text-anchor="end" font-size="12" font-family="Verdana">40</text>
<text x="59.2" y="149" text-anchor="end" font-size="12" font-family="Verdana">60</text>
<text x="59.2" y="104" text-anchor="end" font-size="12" font-family="Verdana">80</text>
<text x="59.2" y="59.4" text-anchor="end" font-size="12" font-family="Verdana">100</text>
<text x="59.2" y="284" text-anchor="end" font-size="12" font-family="Verdana">0</text></g>
<g id="yLabel" fill="rgb(0,0,0)">
<text x="30.2" y="169" text-anchor="middle" transform = "rotate(-90 30.2 169 )" font-size="14" font-family="Verdana">Population Size</text></g>
<g id="xLabel" fill="rgb(0,0,0)">
<text x="279" y="327" text-anchor="middle" font-size="14" font-family="Verdana">Functions</text></g>
<g id="boxAxis" stroke="rgb(0,0,0)"><g clip-path="url(#plot_window)" stroke="rgb(0,255,0)" stroke-width="1"><line x1="175" y1="270" x2="175" y2="195"/></g>
<g clip-path="url(#plot_window)" stroke="rgb(255,165,0)" stroke-width="1"><line x1="279" y1="270" x2="279" y2="195"/></g>
<g clip-path="url(#plot_window)" stroke="rgb(255,165,0)" stroke-width="1"><line x1="384" y1="248" x2="384" y2="135"/></g>
</g>
<g id="Median" stroke="rgb(255,0,0)" stroke-width="2"><g clip-path="url(#plot_window)" stroke="rgb(255,0,255)" fill="rgb(255,255,0)" stroke-width="1"><rect x="170" y="237" width="10" height="29.3"/></g>
<g clip-path="url(#plot_window)" stroke="rgb(0,0,255)" stroke-width="5"><line x1="170" y1="259" x2="179" y2="259"/></g>
<g clip-path="url(#plot_window)" stroke="rgb(0,0,255)" fill="rgb(173,216,230)" stroke-width="1"><rect x="274" y="237" width="10" height="29.3"/></g>
<g clip-path="url(#plot_window)" stroke="rgb(255,0,0)" stroke-width="4"><line x1="275" y1="259" x2="284" y2="259"/></g>
<g clip-path="url(#plot_window)" stroke="rgb(0,0,255)" fill="rgb(173,216,230)" stroke-width="1"><rect x="379" y="153" width="10" height="78.4"/></g>
<g clip-path="url(#plot_window)" stroke="rgb(255,0,0)" stroke-width="4"><line x1="379" y1="194" x2="388" y2="194"/></g>
</g>
<g id="whisker" stroke="rgb(0,0,0)"><g clip-path="url(#plot_window)"><g stroke="rgb(255,0,0)" fill="rgb(0,0,0)" stroke-width="4"><line x1="150" y1="270" x2="200" y2="270"/></g>
<g stroke="rgb(0,128,0)" fill="rgb(0,0,0)" stroke-width="7"><line x1="150" y1="195" x2="200" y2="195"/></g>
</g>
<g clip-path="url(#plot_window)"><g stroke="rgb(255,0,255)" fill="rgb(0,0,0)" stroke-width="1"><line x1="267" y1="270" x2="292" y2="270"/></g>
<g stroke="rgb(0,255,255)" fill="rgb(0,0,0)" stroke-width="1"><line x1="267" y1="195" x2="292" y2="195"/></g>
</g>
<g clip-path="url(#plot_window)"><g stroke="rgb(255,0,255)" fill="rgb(0,0,0)" stroke-width="1"><line x1="371" y1="248" x2="396" y2="248"/></g>
<g stroke="rgb(0,255,255)" fill="rgb(0,0,0)" stroke-width="1"><line x1="371" y1="135" x2="396" y2="135"/></g>
</g>
</g>
<g id="mild_outliers" stroke="rgb(255,192,203)" fill="rgb(0,0,0)"><g clip-path="url(#plot_window)" stroke="rgb(0,0,255)" fill="rgb(255,255,0)"><polygon points=" 170,147 180,147 175,157"/><polygon points=" 170,159 180,159 175,169"/><polygon points=" 170,169 180,169 175,179"/><polygon points=" 170,178 180,178 175,188"/></g>
<g clip-path="url(#plot_window)" stroke="rgb(255,0,0)" fill="rgb(255,255,0)"><rect x="277" y="154" width="5" height="5"/><rect x="277" y="167" width="5" height="5"/><rect x="277" y="177" width="5" height="5"/><rect x="277" y="185" width="5" height="5"/></g>
</g>
<g id="extreme_outliers" stroke="rgb(128,0,128)" fill="rgb(255,255,255)"><g clip-path="url(#plot_window)" stroke="rgb(255,0,0)" fill="rgb(0,128,0)"><circle cx="175" cy="57" r="5"/><circle cx="175" cy="94.4" r="5"/><circle cx="175" cy="121" r="5"/><circle cx="175" cy="141" r="5"/></g>
<g clip-path="url(#plot_window)" stroke="rgb(165,42,42)">
<text x="279" y="57" text-anchor="middle" font-size="10" font-family="Lucida Sans Unicode">&#x2666;</text>
<text x="279" y="94.4" text-anchor="middle" font-size="10" font-family="Lucida Sans Unicode">&#x2666;</text>
<text x="279" y="121" text-anchor="middle" font-size="10" font-family="Lucida Sans Unicode">&#x2666;</text>
<text x="279" y="141" text-anchor="middle" font-size="10" font-family="Lucida Sans Unicode">&#x2666;</text></g>
</g>
<g id="Data Values" fill="rgb(0,0,0)"><g clip-path="url(#plot_window)">
<text x="185" y="262" font-size="10" font-family="Verdana">9.9</text></g>
<g>
<text x="180" y="160" font-size="10" font-family="Verdana">55.6</text></g>
<g>
<text x="180" y="172" font-size="10" font-family="Verdana">50</text></g>
<g>
<text x="180" y="182" font-size="10" font-family="Verdana">45.5</text></g>
<g>
<text x="180" y="191" font-size="10" font-family="Verdana">41.7</text></g>
<g>
<text x="186" y="60" font-size="10" font-family="Verdana">100</text></g>
<g>
<text x="186" y="97.4" font-size="10" font-family="Verdana">83.3</text></g>
<g>
<text x="186" y="124" font-size="10" font-family="Verdana">71.4</text></g>
<g>
<text x="186" y="144" font-size="10" font-family="Verdana">62.5</text></g>
<g clip-path="url(#plot_window)">
<text x="289" y="262" font-size="10" font-family="Verdana">9.9</text></g>
<g>
<text x="285" y="160" font-size="10" font-family="Verdana">55.6</text></g>
<g>
<text x="285" y="172" font-size="10" font-family="Verdana">50</text></g>
<g>
<text x="285" y="182" font-size="10" font-family="Verdana">45.5</text></g>
<g>
<text x="285" y="191" font-size="10" font-family="Verdana">41.7</text></g>
<g>
<text x="290" y="60" font-size="10" font-family="Verdana">100</text></g>
<g>
<text x="290" y="97.4" font-size="10" font-family="Verdana">83.3</text></g>
<g>
<text x="290" y="124" font-size="10" font-family="Verdana">71.4</text></g>
<g>
<text x="290" y="144" font-size="10" font-family="Verdana">62.5</text></g>
<g clip-path="url(#plot_window)">
<text x="394" y="197" font-size="10" font-family="Verdana">38.9</text></g>
</g>
<g id="title" fill="rgb(0,0,0)">
<text x="250" y="36" text-anchor="middle" font-size="18" font-family="Verdana">Boxplots of 1/x and sin(x) Functions</text></g>
</svg>
